<svg xmlns="http://www.w3.org/2000/svg" viewBox="0 0 317.51 633.33"><defs><style>.cls-1{fill:#fff;}.cls-2{fill:#d1d1d1;}</style></defs><g id="Layer_2" data-name="Layer 2"><g id="Layer_1-2" data-name="Layer 1"><path class="cls-1" d="M271.46,4.86H44A39.85,39.85,0,0,0,4.28,44.6V589.13A39.85,39.85,0,0,0,44,628.86H271.46a39.85,39.85,0,0,0,39.74-39.73V44.6A39.85,39.85,0,0,0,271.46,4.86Zm20.91,591.27c-.46.86-7.59,13.67-22.15,17.13a25.18,25.18,0,0,1-5.47.8h-2.2c-21.17.1-58.32.12-95.7.1h-.53c-42.75,0-88.36,0-112.72-.1H51.49a25.18,25.18,0,0,1-5.47-.8C31.46,609.8,24.33,597,23.87,596.13a34.8,34.8,0,0,1-4-17.8V50.6a30.22,30.22,0,0,1,.73-5.6,33.67,33.67,0,0,1,8.8-15.8c2.34-2.4,7.64-7.87,15.87-9.19a23.32,23.32,0,0,1,2.94-.28c8.24,0,21.62.09,29.86.09a3,3,0,0,1,1.67.93,2.94,2.94,0,0,1,.77,1.74v0a21.15,21.15,0,0,0,21.1,19.78H215.2a21.14,21.14,0,0,0,21.1-19.78v0a2.94,2.94,0,0,1,.77-1.74,3,3,0,0,1,1.67-.93c8.24,0,21-.09,29.26-.09A23.32,23.32,0,0,1,271,20c8.23,1.32,13.53,6.79,15.87,9.19a33.67,33.67,0,0,1,8.8,15.8,30.22,30.22,0,0,1,.73,5.6V578.33A34.8,34.8,0,0,1,292.37,596.13Z"/><path class="cls-2" d="M272.54,0h-228C21,0,1.84,20.05,1.84,44.69v.84h5.7v-.84c0-21.4,16.59-38.82,37-38.82h228c20.4,0,37,17.42,37,38.82v.84h5.7v-.84C315.23,20.05,296.08,0,272.54,0Z"/><path class="cls-2" d="M272.54,633.33h-228c-23.54,0-42.69-20.05-42.69-44.69v-.84h5.7v.84c0,21.4,16.59,38.82,37,38.82h228c20.4,0,37-17.42,37-38.82v-.84h5.7v.84C315.23,613.28,296.08,633.33,272.54,633.33Z"/><path class="cls-2" d="M177.35,24.66a2.13,2.13,0,0,1-2.13,2.14h-33.6a2.14,2.14,0,0,1,0-4.27h33.6A2.13,2.13,0,0,1,177.35,24.66Z"/><path class="cls-2" d="M192.84,30.53a5.62,5.62,0,1,1,5.62-5.62A5.62,5.62,0,0,1,192.84,30.53Zm0-9.24a3.62,3.62,0,1,0,3.62,3.62A3.63,3.63,0,0,0,192.84,21.29Z"/><path class="cls-2" d="M317.51,147.46V215.4a2,2,0,0,1-2,2h-.18V579.26H309.6V56.06h5.73v89.4h.18A2,2,0,0,1,317.51,147.46Z"/><path class="cls-2" d="M7.55,56.06v523.2H1.82V235.34a2,2,0,0,1-1.82-2V191.46a2,2,0,0,1,1.82-2V177.34a2,2,0,0,1-1.82-2V133.46a2,2,0,0,1,1.82-2V108.1a2,2,0,0,1-1.82-2V88.46a2,2,0,0,1,1.82-2V56.06Z"/></g></g></svg>